# xmcd
#
# Track frame offsets:
#	150
#	17610
#	30013
#	46874
#	71868
#	88551
#	111431
#	127227
#	147025
#	167206
#	182151
#
# Disc length: 2802 seconds
#
# Revision: 1
# Processed by: cddbd v1.5.1PL2 Copyright (c) Steve Scherf et al.
# Submitted via: audiograbber 1.83.01
#
DISCID=920af00b
DTITLE=Jeanne Lozier - Queen Of Your Dreams
DYEAR=2005
DGENRE=
TTITLE0=Queen Of Your Dreams
TTITLE1=Sweet And Slow
TTITLE2=Sometimes You Make Me So Mad
TTITLE3=Each And Every Single Day
TTITLE4=Beg And Plead
TTITLE5=Your Fool No More
TTITLE6=Keeping What I Want
TTITLE7=Mama Blues
TTITLE8=Good Time Blues
TTITLE9=You Can't Stay Here
TTITLE10=Loving A Woman Like Me
EXTD=
EXTT0=
EXTT1=
EXTT2=
EXTT3=
EXTT4=
EXTT5=
EXTT6=
EXTT7=
EXTT8=
EXTT9=
EXTT10=
PLAYORDER=
